<?xml version="1.0" encoding="windows-1252"?>
<!-- Generator: Adobe Illustrator 19.0.0, SVG Export Plug-In . SVG Version: 6.00 Build 0)  -->
<svg version="1.1" id="Layer_1" xmlns="http://www.w3.org/2000/svg" xmlns:xlink="http://www.w3.org/1999/xlink" x="0px" y="0px" viewBox="0 0 512 512" style="enable-background:new 0 0 512 512;" xml:space="preserve">
<rect x="213.333" y="71.111" style="fill:#D80027;" width="42.667" height="71.111"/>
<rect y="113.778" style="fill:#E4F1FB;" width="298.667" height="270.222"/>
<path style="fill:#C9E3F7;" d="M455.111,227.556l-42.667-113.778H256V384h256V256L455.111,227.556z"/>
<polygon style="fill:#3C5D76;" points="409.543,227.556 382.876,156.444 298.667,156.444 298.667,227.556 "/>
<rect y="341.333" style="fill:#C9E3F7;" width="512" height="42.667"/>
<rect x="469.333" y="298.667" style="fill:#A2001D;" width="42.667" height="56.889"/>
<rect x="256" y="341.333" style="fill:#93C7EF;" width="256" height="42.667"/>
<g>
	<circle style="fill:#1E2E3B;" cx="384" cy="384" r="56.889"/>
	<circle style="fill:#1E2E3B;" cx="113.778" cy="384" r="56.889"/>
</g>
<circle style="fill:#78B9EB;" cx="113.778" cy="384" r="28.444"/>
<circle style="fill:#5A8BB0;" cx="384" cy="384" r="28.444"/>
<polygon style="fill:#D80027;" points="184.889,199.111 142.222,199.111 142.222,156.444 85.333,156.444 85.333,199.111   42.667,199.111 42.667,256 85.333,256 85.333,298.667 142.222,298.667 142.222,256 184.889,256 "/>
<g>
</g>
<g>
</g>
<g>
</g>
<g>
</g>
<g>
</g>
<g>
</g>
<g>
</g>
<g>
</g>
<g>
</g>
<g>
</g>
<g>
</g>
<g>
</g>
<g>
</g>
<g>
</g>
<g>
</g>
</svg>