<?xml version="1.0" encoding="UTF-8" standalone="no"?>
<!-- Generator: Adobe Illustrator 19.0.0, SVG Export Plug-In . SVG Version: 6.00 Build 0)  -->

<svg
   xmlns:dc="http://purl.org/dc/elements/1.1/"
   xmlns:cc="http://creativecommons.org/ns#"
   xmlns:rdf="http://www.w3.org/1999/02/22-rdf-syntax-ns#"
   xmlns:svg="http://www.w3.org/2000/svg"
   xmlns="http://www.w3.org/2000/svg"
   xmlns:sodipodi="http://sodipodi.sourceforge.net/DTD/sodipodi-0.dtd"
   xmlns:inkscape="http://www.inkscape.org/namespaces/inkscape"
   version="1.1"
   id="Capa_1"
   x="0px"
   y="0px"
   viewBox="0 0 460 460"
   style="enable-background:new 0 0 460 460;"
   xml:space="preserve"
   sodipodi:docname="eli2.svg"
   inkscape:version="0.92.5 (2060ec1f9f, 2020-04-08)"><metadata
   id="metadata55"><rdf:RDF><cc:Work
       rdf:about=""><dc:format>image/svg+xml</dc:format><dc:type
         rdf:resource="http://purl.org/dc/dcmitype/StillImage" /><dc:title></dc:title></cc:Work></rdf:RDF></metadata><defs
   id="defs53" /><sodipodi:namedview
   pagecolor="#ffffff"
   bordercolor="#666666"
   borderopacity="1"
   objecttolerance="10"
   gridtolerance="10"
   guidetolerance="10"
   inkscape:pageopacity="0"
   inkscape:pageshadow="2"
   inkscape:window-width="1920"
   inkscape:window-height="1020"
   id="namedview51"
   showgrid="false"
   inkscape:zoom="0.51304348"
   inkscape:cx="230"
   inkscape:cy="230"
   inkscape:window-x="900"
   inkscape:window-y="28"
   inkscape:window-maximized="1"
   inkscape:current-layer="g18" />
<g
   id="g18">
	<path
   style="fill:#ffa200;fill-opacity:1"
   d="M420,370c0,11.046-8.954,20-20,20h-50v-60h-40v60H190v-60h-40v60H70v40h330   c33.137,0,60-26.863,60-60H420z"
   id="path2" />
	<rect
   x="271"
   y="70"
   style="fill:#a6a6a6;fill-opacity:1"
   width="40"
   height="60"
   id="rect4" />
	<rect
   x="290"
   y="30"
   style="fill:#a6a6a6;fill-opacity:1"
   width="170"
   height="40"
   id="rect6" />
	<rect
   x="120"
   y="30"
   style="fill:#d1d1d1;fill-opacity:1"
   width="170"
   height="40"
   id="rect8" />
	<polygon
   style="fill:#ffdd00;fill-opacity:1"
   points="76.569,130 60,90 0,90 0,210 110,210 110,330 310,330 310,130  "
   id="polygon10" />
	<rect
   x="310"
   y="260"
   style="fill:#d4b700;fill-opacity:1"
   width="150"
   height="70"
   id="rect12" />
	<path
   style="fill:#6BE0F4;"
   d="M330,130h-20v130h150C460,188.203,401.797,130,330,130z"
   id="path14" />
	<polygon
   style="fill:#EA6453;"
   points="270,210 230,210 230,170 190,170 190,210 150,210 150,250 190,250 190,290 230,290 230,250    270,250  "
   id="polygon16" />
</g>
<g
   id="g20">
</g>
<g
   id="g22">
</g>
<g
   id="g24">
</g>
<g
   id="g26">
</g>
<g
   id="g28">
</g>
<g
   id="g30">
</g>
<g
   id="g32">
</g>
<g
   id="g34">
</g>
<g
   id="g36">
</g>
<g
   id="g38">
</g>
<g
   id="g40">
</g>
<g
   id="g42">
</g>
<g
   id="g44">
</g>
<g
   id="g46">
</g>
<g
   id="g48">
</g>
</svg>