<?xml version="1.0" encoding="iso-8859-1"?>
<!-- Generator: Adobe Illustrator 18.0.0, SVG Export Plug-In . SVG Version: 6.00 Build 0)  -->
<!DOCTYPE svg PUBLIC "-//W3C//DTD SVG 1.1//EN" "http://www.w3.org/Graphics/SVG/1.1/DTD/svg11.dtd">
<svg version="1.1" id="Capa_1" xmlns="http://www.w3.org/2000/svg" xmlns:xlink="http://www.w3.org/1999/xlink" x="0px" y="0px"
	 viewBox="0 0 106.207 106.207" style="enable-background:new 0 0 106.207 106.207;" xml:space="preserve">
<g>
	<g>
		<polygon style="fill:#9AC7D9;" points="21.992,105.972 26.914,101.055 23.291,97.434 37.5,83.226 22.746,68.472 8.539,82.68 
			4.916,79.058 0,83.978 		"/>
	</g>
	<g>
		<polygon style="fill:#9AC7D9;" points="59.795,33.955 72.627,46.787 85.328,34.085 79.852,28.609 106.207,2.252 104.189,0.235 
			77.836,26.59 72.496,21.253 		"/>
	</g>
	<g>
		<polygon style="fill:#C9EBF2;" points="8.529,67.502 38.939,97.911 50.379,86.473 44.937,81.033 83.369,42.603 63.84,23.074 
			25.41,61.504 19.969,56.063 		"/>
	</g>
	<g>
		<polygon style="fill:#E74C3C;" points="63.699,30.049 76.533,42.881 46.088,73.326 40.338,53.411 		"/>
	</g>
	<g>
		<path style="fill:#D6EFFF;" d="M59.721,41.085c0.779-0.778,2.041-0.778,2.816,0l0,0c0.779,0.778,0.779,2.039,0,2.817
			L37.221,69.221c-0.779,0.778-2.039,0.778-2.816,0l0,0c-0.779-0.778-0.779-2.04,0-2.818L59.721,41.085z"/>
	</g>
</g>
<g>
</g>
<g>
</g>
<g>
</g>
<g>
</g>
<g>
</g>
<g>
</g>
<g>
</g>
<g>
</g>
<g>
</g>
<g>
</g>
<g>
</g>
<g>
</g>
<g>
</g>
<g>
</g>
<g>
</g>
</svg>
