<?xml version="1.0" encoding="UTF-8" standalone="no"?>
<!-- Generator: Adobe Illustrator 18.1.1, SVG Export Plug-In . SVG Version: 6.00 Build 0)  -->

<svg
   xmlns:dc="http://purl.org/dc/elements/1.1/"
   xmlns:cc="http://creativecommons.org/ns#"
   xmlns:rdf="http://www.w3.org/1999/02/22-rdf-syntax-ns#"
   xmlns:svg="http://www.w3.org/2000/svg"
   xmlns="http://www.w3.org/2000/svg"
   xmlns:sodipodi="http://sodipodi.sourceforge.net/DTD/sodipodi-0.dtd"
   xmlns:inkscape="http://www.inkscape.org/namespaces/inkscape"
   version="1.1"
   id="Capa_1"
   x="0px"
   y="0px"
   viewBox="0 0 31.955 31.955"
   style="enable-background:new 0 0 31.955 31.955;"
   xml:space="preserve"
   sodipodi:docname="red-dot.svg"
   inkscape:version="0.92.5 (2060ec1f9f, 2020-04-08)"><metadata
   id="metadata45"><rdf:RDF><cc:Work
       rdf:about=""><dc:format>image/svg+xml</dc:format><dc:type
         rdf:resource="http://purl.org/dc/dcmitype/StillImage" /><dc:title></dc:title></cc:Work></rdf:RDF></metadata><defs
   id="defs43" /><sodipodi:namedview
   pagecolor="#ffffff"
   bordercolor="#666666"
   borderopacity="1"
   objecttolerance="10"
   gridtolerance="10"
   guidetolerance="10"
   inkscape:pageopacity="0"
   inkscape:pageshadow="2"
   inkscape:window-width="1920"
   inkscape:window-height="1020"
   id="namedview41"
   showgrid="false"
   inkscape:zoom="7.3853857"
   inkscape:cx="15.9775"
   inkscape:cy="15.9775"
   inkscape:window-x="900"
   inkscape:window-y="28"
   inkscape:window-maximized="1"
   inkscape:current-layer="Capa_1" />
<g
   id="g8"
   style="fill:#ff0000">
	<path
   style="fill:#ff0000"
   d="M27.25,4.655C20.996-1.571,10.88-1.546,4.656,4.706C-1.571,10.96-1.548,21.076,4.705,27.3   c6.256,6.226,16.374,6.203,22.597-0.051C33.526,20.995,33.505,10.878,27.25,4.655z"
   id="path2" />
	<path
   style="fill:#ff0000"
   d="M13.288,23.896l-1.768,5.207c2.567,0.829,5.331,0.886,7.926,0.17l-0.665-5.416   C17.01,24.487,15.067,24.5,13.288,23.896z M8.12,13.122l-5.645-0.859c-0.741,2.666-0.666,5.514,0.225,8.143l5.491-1.375   C7.452,17.138,7.426,15.029,8.12,13.122z M28.763,11.333l-4.965,1.675c0.798,2.106,0.716,4.468-0.247,6.522l5.351,0.672   C29.827,17.319,29.78,14.193,28.763,11.333z M11.394,2.883l1.018,5.528c2.027-0.954,4.356-1.05,6.442-0.288l1.583-5.137   C17.523,1.94,14.328,1.906,11.394,2.883z"
   id="path4" />
	<circle
   style="fill:#ff0000"
   cx="15.979"
   cy="15.977"
   r="6.117"
   id="circle6" />
</g>
<g
   id="g10">
</g>
<g
   id="g12">
</g>
<g
   id="g14">
</g>
<g
   id="g16">
</g>
<g
   id="g18">
</g>
<g
   id="g20">
</g>
<g
   id="g22">
</g>
<g
   id="g24">
</g>
<g
   id="g26">
</g>
<g
   id="g28">
</g>
<g
   id="g30">
</g>
<g
   id="g32">
</g>
<g
   id="g34">
</g>
<g
   id="g36">
</g>
<g
   id="g38">
</g>
</svg>